<svg xmlns="http://www.w3.org/2000/svg" xmlns:xlink="http://www.w3.org/1999/xlink" width="500" zoomAndPan="magnify" viewBox="0 0 375 374.999991" height="500" preserveAspectRatio="xMidYMid meet" version="1.0"><defs><clipPath id="b126c5bb1f"><path d="M 13.363281 13.363281 L 361.636719 13.363281 L 361.636719 361.636719 L 13.363281 361.636719 Z M 13.363281 13.363281 " clip-rule="nonzero"/></clipPath><clipPath id="96d48ce428"><path d="M 187.5 13.363281 C 91.328125 13.363281 13.363281 91.328125 13.363281 187.5 C 13.363281 283.671875 91.328125 361.636719 187.5 361.636719 C 283.671875 361.636719 361.636719 283.671875 361.636719 187.5 C 361.636719 91.328125 283.671875 13.363281 187.5 13.363281 Z M 187.5 13.363281 " clip-rule="nonzero"/></clipPath></defs><g clip-path="url(#b126c5bb1f)"><g clip-path="url(#96d48ce428)"><path fill="#ff914d" d="M 13.363281 13.363281 L 361.636719 13.363281 L 361.636719 361.636719 L 13.363281 361.636719 Z M 13.363281 13.363281 " fill-opacity="1" fill-rule="nonzero"/></g></g><path fill="#ffffff" d="M 254.296875 139.582031 C 251.664062 140.578125 250.378906 143.5 251.375 146.074219 C 252.367188 148.644531 255.289062 149.992188 257.921875 148.9375 C 260.496094 147.945312 261.839844 145.019531 260.785156 142.390625 C 259.851562 139.875 256.929688 138.589844 254.296875 139.582031 Z M 118.300781 113.859375 C 97.660156 103.039062 80.296875 85.851562 69.421875 63.75 C 93.507812 60.125 117.65625 64.570312 138.53125 75.445312 C 159.167969 86.261719 176.535156 103.449219 187.410156 125.550781 C 192.964844 124.617188 198.402344 123.5625 203.839844 122.394531 C 223.074219 119.238281 239.210938 119.644531 252.015625 122.570312 C 269.382812 126.546875 281.132812 135.199219 287.039062 146.25 C 288.324219 156.363281 282.011719 166.945312 278.152344 172.09375 C 273.472656 178.289062 266.808594 184.546875 256.753906 192.148438 C 256.695312 192.203125 256.636719 192.203125 256.578125 192.261719 C 251.605469 195.945312 249.910156 199.339844 250.496094 202.730469 C 251.199219 206.414062 254.355469 208.460938 260.960938 208.691406 C 271.660156 209.453125 282.769531 210.738281 294.230469 212.550781 C 306.917969 214.597656 304.460938 232.664062 293.179688 232.3125 C 284.058594 232.023438 274.527344 232.3125 264.703125 233.191406 C 262.25 233.425781 259.734375 233.660156 257.277344 233.953125 C 233.308594 236.757812 207.757812 243.015625 182.03125 252.953125 C 153.613281 263.945312 128.355469 278.035156 107.425781 293.824219 C 102.921875 297.214844 98.65625 300.664062 94.5625 304.230469 C 82.28125 314.871094 68.074219 302.59375 76.144531 292.886719 C 102.453125 261.316406 130.285156 238.453125 153.148438 219.683594 L 160.921875 213.3125 C 176.242188 200.625 186.296875 189.75 191.09375 177.703125 C 195.128906 167.53125 195.652344 156.011719 192.730469 141.105469 C 191.96875 137.59375 190.214844 132.449219 187.410156 125.550781 C 163.320312 129.175781 139.113281 124.792969 118.300781 113.859375 Z M 133.210938 142.800781 C 117.597656 150.984375 104.5 163.964844 96.257812 180.6875 C 114.441406 183.433594 132.742188 180.101562 148.46875 171.800781 C 164.082031 163.613281 177.175781 150.632812 185.421875 133.914062 C 167.238281 131.222656 148.996094 134.554688 133.210938 142.800781 Z M 144.027344 279.558594 C 140.109375 283.824219 136.25 288.269531 132.390625 292.886719 C 124.261719 302.59375 138.472656 314.871094 150.808594 304.230469 C 163.847656 292.945312 184.308594 270.4375 184.894531 260.4375 C 170.921875 265.875 157.179688 272.191406 144.027344 279.558594 Z M 144.027344 279.558594 " fill-opacity="1" fill-rule="evenodd"/></svg>